<svg xmlns="http://www.w3.org/2000/svg" fill="none" viewBox="0 0 152 28"><path fill="#6039B3" d="M.25 0h28v28h-28z"/><path fill="#fff" d="M9.777 21.778v-7.973h-.971a2.144 2.144 0 0 1-2.14-2.139V6.222a.583.583 0 1 1 1.167 0v5.444c0 .534.44.973.973.973h.971V6.222a.584.584 0 0 1 1.167 0v6.417h.972a.972.972 0 0 0 .973-.973V6.222a.583.583 0 0 1 1.167 0v5.444a2.14 2.14 0 0 1-2.14 2.14h-.972v7.972a.583.583 0 0 1-1.167 0Zm10.89 0v-4.862h-1.75a2.143 2.143 0 0 1-2.14-2.138V10.11a4.474 4.474 0 0 1 4.473-4.47.583.583 0 0 1 .583.583v15.556a.584.584 0 0 1-1.166 0Zm-2.723-7c0 .533.44.972.973.972h1.75V6.858a3.305 3.305 0 0 0-2.723 3.253v4.667Z"/><path fill="#341E63" d="M151.249 2.268v1.736h-3.453V15.24h-2.128V4.004h-3.472V2.268h9.053ZM139.49 15.241h-2.128l-6.402-9.688v9.688h-2.128V2.249h2.128l6.402 9.67v-9.67h2.128v12.992Zm-19.962.131a6.833 6.833 0 0 1-3.342-.84 6.476 6.476 0 0 1-2.408-2.371c-.585-1.02-.877-2.165-.877-3.435s.292-2.408.877-3.416a6.336 6.336 0 0 1 2.408-2.352 6.716 6.716 0 0 1 3.342-.858c1.219 0 2.333.286 3.341.858a6.165 6.165 0 0 1 2.408 2.352c.585 1.008.877 2.147.877 3.416 0 1.27-.292 2.414-.877 3.435a6.298 6.298 0 0 1-2.408 2.37c-1.008.56-2.122.84-3.341.84Zm0-1.848c.858 0 1.624-.193 2.296-.58a4.095 4.095 0 0 0 1.568-1.68c.385-.733.578-1.58.578-2.538 0-.958-.193-1.798-.578-2.52a3.972 3.972 0 0 0-1.568-1.661c-.672-.386-1.438-.579-2.296-.579-.859 0-1.624.193-2.296.579a4.09 4.09 0 0 0-1.587 1.661c-.373.722-.56 1.562-.56 2.52s.187 1.805.56 2.539a4.22 4.22 0 0 0 1.587 1.68c.672.386 1.437.579 2.296.579Zm-11.557 1.716-2.986-5.188h-1.624v5.189h-2.128V2.268h4.48c.995 0 1.835.174 2.52.522.697.349 1.213.815 1.549 1.4a3.76 3.76 0 0 1 .523 1.96c0 .846-.249 1.618-.747 2.315-.485.684-1.238 1.151-2.259 1.4l3.211 5.376h-2.539Zm-4.61-6.887h2.352c.796 0 1.393-.2 1.792-.597.41-.399.616-.934.616-1.606s-.199-1.194-.598-1.568c-.398-.386-1.001-.578-1.81-.578h-2.352v4.349Zm-4.684-6.085v1.736H93.17V7.83h4.294v1.736H93.17v5.675h-2.129V2.268h7.635ZM85.403 15.24l-2.986-5.188h-1.624v5.189h-2.128V2.268h4.48c.995 0 1.835.174 2.52.522.697.349 1.213.815 1.55 1.4a3.76 3.76 0 0 1 .522 1.96 3.9 3.9 0 0 1-.747 2.315c-.485.684-1.238 1.151-2.258 1.4l3.21 5.376h-2.538Zm-4.61-6.887h2.352c.796 0 1.394-.2 1.792-.597.41-.399.616-.934.616-1.606s-.2-1.194-.597-1.568c-.399-.386-1.002-.578-1.811-.578h-2.352v4.349ZM70.42 3.985v3.808h4.48v1.736h-4.48v3.976h5.04v1.736h-7.167V2.249h7.167v1.736h-5.04Zm-4.49-1.717L61.057 15.24h-2.464l-4.89-12.973h2.277l3.846 10.789 3.864-10.79h2.24Zm-14.56 0V15.24h-2.127V2.268h2.128ZM43.604 15.24l-2.986-5.188h-1.625v5.189h-2.128V2.268h4.48c.996 0 1.836.174 2.52.522.697.349 1.214.815 1.55 1.4a3.76 3.76 0 0 1 .523 1.96 3.9 3.9 0 0 1-.747 2.315c-.486.684-1.238 1.151-2.259 1.4l3.21 5.376h-2.538Zm-4.61-6.887h2.352c.796 0 1.393-.2 1.792-.597.41-.399.616-.934.616-1.606s-.2-1.194-.598-1.568c-.398-.386-1.002-.578-1.81-.578h-2.352v4.349ZM71.316 21.57c0 .308-.073.6-.219.874-.145.274-.379.499-.7.674-.32.169-.732.254-1.233.254H68.06v2.467h-.997v-6.081h2.1c.466 0 .86.082 1.181.245.327.157.569.373.726.647.164.274.245.58.245.92Zm-2.152.988c.379 0 .662-.085.849-.254.186-.175.28-.42.28-.735 0-.665-.377-.997-1.13-.997h-1.102v1.986h1.103Zm-8.32-2.8v3.876c0 .46.12.808.36 1.041.244.234.582.35 1.014.35.438 0 .776-.116 1.015-.35.245-.233.368-.58.368-1.04v-3.877h.997v3.859c0 .495-.108.915-.324 1.26a2.01 2.01 0 0 1-.866.77 2.794 2.794 0 0 1-1.199.253c-.437 0-.837-.084-1.198-.253a1.966 1.966 0 0 1-.85-.77c-.21-.345-.314-.765-.314-1.26v-3.86h.997ZM54.601 25.9a3.202 3.202 0 0 1-1.566-.393 3.034 3.034 0 0 1-1.129-1.112 3.18 3.18 0 0 1-.411-1.61c0-.595.137-1.128.411-1.6.28-.473.656-.84 1.129-1.103.478-.269 1-.403 1.566-.403.572 0 1.094.134 1.566.403.479.262.855.63 1.13 1.102.273.473.41 1.006.41 1.601s-.137 1.132-.41 1.61a2.95 2.95 0 0 1-1.13 1.112 3.17 3.17 0 0 1-1.566.393Zm0-.866c.403 0 .761-.09 1.076-.271.315-.187.56-.45.735-.788.181-.344.272-.74.272-1.19 0-.449-.09-.843-.272-1.18a1.86 1.86 0 0 0-.735-.78 2.123 2.123 0 0 0-1.076-.27c-.402 0-.761.09-1.076.27-.315.181-.563.44-.744.78-.175.337-.262.731-.262 1.18 0 .45.087.846.262 1.19.181.339.429.601.744.788.315.18.674.271 1.076.271Zm-6.311.806-1.4-2.433h-.76v2.432h-.998v-6.081h2.1c.467 0 .86.082 1.181.245.327.163.57.382.727.656.163.274.245.58.245.919 0 .396-.117.758-.35 1.085-.228.32-.58.54-1.06.656l1.506 2.52h-1.19Zm-2.16-3.23h1.102c.373 0 .653-.093.84-.28.193-.186.289-.437.289-.752s-.093-.56-.28-.735c-.187-.181-.47-.271-.849-.271H46.13v2.038Zm-4.53-1.102a1.58 1.58 0 0 0-.657-.683 1.948 1.948 0 0 0-.971-.236c-.403 0-.761.09-1.077.271a1.934 1.934 0 0 0-.743.77 2.444 2.444 0 0 0-.263 1.155c0 .438.088.826.263 1.164.18.333.428.59.743.77.316.181.674.271 1.077.271.542 0 .983-.151 1.321-.455.338-.303.545-.714.621-1.233H39.63v-.797h3.352v.78a2.963 2.963 0 0 1-.508 1.303 2.982 2.982 0 0 1-1.058.954c-.432.233-.913.35-1.444.35a3.17 3.17 0 0 1-1.566-.394 3.034 3.034 0 0 1-1.13-1.111 3.132 3.132 0 0 1-.41-1.602c0-.595.137-1.128.41-1.6.28-.473.657-.84 1.13-1.103.478-.269 1-.403 1.566-.403.647 0 1.222.16 1.724.481.507.315.875.765 1.102 1.348h-1.199Z"/></svg>