<svg xmlns="http://www.w3.org/2000/svg" fill="none" viewBox="0 0 131 35"><path fill="#0F172A" d="m130.872 8.099-7.194 13.898v7.907h-3.566v-7.907L112.886 8.1h3.972l5.037 10.698L126.931 8.1h3.941ZM105.664 29.904l-5.005-8.722h-2.72v8.722h-3.567V8.099h7.507c1.669 0 3.076.292 4.223.878 1.168.586 2.034 1.37 2.597 2.353.584.983.875 2.081.875 3.294 0 1.423-.417 2.72-1.251 3.89-.813 1.151-2.075 1.936-3.785 2.354l5.381 9.036h-4.255Zm-7.726-11.577h3.941c1.335 0 2.336-.335 3.003-1.004.689-.67 1.033-1.57 1.033-2.699 0-1.129-.334-2.008-1.001-2.635-.668-.648-1.679-.973-3.035-.973h-3.94v7.31ZM80.909 10.985v6.4h7.507v2.918H80.91v6.683h8.446v2.918H77.343V8.067h12.012v2.918h-8.446ZM73.106 8.099v2.917h-5.787v18.888h-3.566V11.016h-5.818V8.1h15.17ZM54.824 8.099v2.917h-5.787v18.888H45.47V11.016h-5.819V8.1h15.172ZM3.566 27.017h7.351v2.887H0V8.099h3.566v18.918Z"/><g fill="#6039B3" clip-path="url(#a)"><path d="M27.007 6.754c.572-.731.815-1.324.815-2.389C27.822 2.212 26.415 0 25.447 0s-2.374 2.212-2.374 4.365c0 1.1.258 1.696.87 2.46.499.621.79 1.386.816 2.184.054 1.67-.042 3.421-.147 5.052-.02.31.019.619.115.913l.125.381-.297-.431c-1.064-1.547-2.257-3.27-3.21-5.005-.395-.72-.228-1.91-.391-2.716-.291-1.439-2.563-4.421-3.259-5.309a.361.361 0 0 0-.466-.095.36.36 0 0 0-.124.493l1.963 3.303a.283.283 0 0 1-.086.384.273.273 0 0 1-.38-.093l-1.944-3.27a.397.397 0 0 0-.53-.152.397.397 0 0 0-.148.55l1.944 3.27a.283.283 0 0 1-.085.384.273.273 0 0 1-.38-.092l-1.963-3.302a.36.36 0 0 0-.478-.14.36.36 0 0 0-.158.458c.442 1.025 1.985 4.47 3.11 5.41.628.527 1.748.94 2.192 1.631 1.424 2.22 2.626 4.81 3.683 6.807.22.414.557 1.158.84 1.454.31.325.668.37 1.033.267.333-.093.672-.32.75-.764.08-.454.002-1.215-.021-1.685-.112-2.26-.4-5.103-.31-7.744.028-.822.364-1.569.87-2.215Zm-1.56 11.948a.526.526 0 0 1-.524-.528c0-.292.235-.528.524-.528.29 0 .524.236.524.528a.526.526 0 0 1-.524.528Z"/><path d="M27.895 6.966a.945.945 0 0 0 .647 1.103 10.584 10.584 0 0 1 7.402 10.19c-.043 5.555-4.416 10.18-9.922 10.477-6.048.327-11.073-4.537-11.073-10.561 0-2.79 1.078-5.33 2.836-7.222a.949.949 0 0 0 .017-1.28.932.932 0 0 0-1.38-.006 12.46 12.46 0 0 0-3.335 8.626c.062 6.73 5.505 12.24 12.184 12.334 6.907.097 12.536-5.516 12.536-12.453 0-5.602-3.671-10.34-8.722-11.904a.934.934 0 0 0-1.19.696Z"/></g><defs><clipPath id="a"><path fill="#fff" d="M13.087 0h24.72v30.628h-24.72z"/></clipPath></defs></svg>
